<?xml version="1.0" encoding="UTF-8"?>
<svg id="Layer_1" data-name="Layer 1" xmlns="http://www.w3.org/2000/svg" viewBox="0 0 1274.40332 400">
  <defs>
    <style>
      .cls-1 {
        fill: #e95420;
      }

      .cls-2 {
        fill: #fff;
      }
    </style>
  </defs>
  <g>
    <path d="M359.42188,357.3877c-14.13672,0-26.83496-3.26172-38.0957-9.78613-11.26416-6.52441-20.11816-16.03711-26.56201-28.54297-6.44727-12.50098-9.66943-27.84277-9.66943-46.0166,0-13.51465,2.01709-25.51367,6.05811-35.99902,4.0376-10.48535,9.58936-19.29883,16.65966-26.44531,7.06641-7.14258,15.14503-12.54199,24.23194-16.19336,9.08691-3.64795,18.6001-5.47559,28.54248-5.47559,8.23145,0,15.41455.6626,21.55225,1.98047,6.13477,1.32129,11.2207,2.83594,15.26172,4.54346,4.0376,1.71094,6.98975,3.18555,8.854,4.42676l-5.8252,15.37842c-3.88428-2.33008-8.89404-4.58008-15.02832-6.75684-6.13818-2.17383-13.5542-3.2627-22.25146-3.2627-12.73877,0-23.49658,2.83594-32.27051,8.50488-8.77783,5.67188-15.41797,13.59375-19.92139,23.76562-4.50732,10.17578-6.75732,22.09863-6.75732,35.76562,0,13.6709,2.17383,25.59375,6.52393,35.76562,4.34717,10.17578,10.75439,18.05762,19.22266,23.64941,8.46436,5.5918,18.83301,8.3877,31.10547,8.3877,10.25195,0,18.79297-.96777,25.62988-2.91211,6.8335-1.94043,12.11621-3.9209,15.84424-5.94141l4.89307,15.37793c-2.48682,1.55469-7.88574,3.5752-16.19336,6.05762-8.31201,2.4834-18.91309,3.72852-31.80469,3.72852Z"/>
    <path d="M470.32568,356.45605c-8.70068,0-16.46631-1.24512-23.2998-3.72852-6.83691-2.48242-12.19629-6.52441-16.07715-12.11621-3.88428-5.5918-5.82471-12.96777-5.82471-22.13477,0-8.85352,2.17334-16.03711,6.52393-21.55273,4.34668-5.51172,10.36816-9.5127,18.05762-11.99902,7.68896-2.4834,16.34619-3.72852,25.97949-3.72852,4.34668,0,8.93018.38965,13.74658,1.16504,4.81299.7793,7.84229,1.47852,9.0874,2.09766v-6.99023c0-5.2793-.6626-10.36914-1.98047-15.26172-1.32178-4.89258-4.00146-8.89062-8.03857-11.99902-4.04102-3.10547-10.17578-4.66016-18.40723-4.66016-8.54443,0-15.06836.62207-19.57178,1.86328-4.50732,1.24512-7.8457,2.25391-10.01904,3.0293l-2.33008-14.91211c2.7959-1.24121,7.06641-2.40625,12.81494-3.49512,5.74512-1.08496,12.50195-1.63086,20.271-1.63086,11.02734,0,19.76514,1.94434,26.2124,5.8252,6.44385,3.88477,11.104,9.20312,13.97998,15.96094,2.87256,6.75684,4.31055,14.48535,4.31055,23.18262v75.72559c-3.26172.7793-9.08691,1.86426-17.4751,3.26172-8.3877,1.39844-17.70801,2.09766-27.95996,2.09766ZM472.88867,341.54395c5.43555,0,10.32861-.19336,14.6792-.58301,4.34668-.38574,7.99854-.8916,10.95117-1.51465v-40.54199c-1.55469-.77539-4.19434-1.55078-7.92236-2.33008-3.72803-.77539-8.54443-1.16504-14.4458-1.16504-4.97314,0-10.01904.54688-15.14502,1.63184-5.12598,1.08789-9.43652,3.26172-12.93164,6.52344-3.49463,3.26172-5.24219,8.15527-5.24219,14.67871,0,8.70117,2.71582,14.75977,8.15479,18.1748,5.43555,3.41797,12.73486,5.12598,21.90186,5.12598Z"/>
    <path d="M553.50488,353.89258v-116.5c4.81299-1.24121,11.104-2.63965,18.87305-4.19434,7.76562-1.55078,17.08545-2.33008,27.95996-2.33008,12.58203,0,22.36816,2.33008,29.3584,6.99023,6.98975,4.66016,11.91943,11.14746,14.79541,19.45605,2.87256,8.31152,4.31055,17.98047,4.31055,29.00781v67.57031h-17.4751v-62.67676c0-11.02734-1.01221-19.80566-3.02881-26.3291-2.021-6.52441-5.43945-11.26074-10.25244-14.21289-4.81641-2.94922-11.49707-4.42773-20.0376-4.42773-6.52441,0-12.27295.38965-17.24219,1.16504-4.97314.7793-8.23486,1.39844-9.78613,1.86426v104.61719h-17.4751Z"/>
    <path d="M735.01221,356.68848c-10.71826,0-20.271-2.60254-28.65918-7.80566-8.38818-5.20215-14.95215-12.54199-19.68848-22.01855-4.74023-9.47266-7.10645-20.58008-7.10645-33.31836,0-12.73535,2.36621-23.80273,7.10645-33.20312,4.73633-9.39648,11.30029-16.73535,19.68848-22.01855,8.38818-5.27832,17.94092-7.92188,28.65918-7.92188,10.87061,0,20.50391,2.64355,28.89209,7.92188,8.3877,5.2832,14.94824,12.62207,19.68848,22.01855,4.73633,9.40039,7.10645,20.46777,7.10645,33.20312,0,12.73828-2.37012,23.8457-7.10645,33.31836-4.74023,9.47656-11.26416,16.81641-19.57227,22.01855-8.31152,5.20312-17.98096,7.80566-29.0083,7.80566ZM735.01221,341.07715c7.76514,0,14.4458-1.94043,20.03809-5.82422,5.5918-3.88086,9.90234-9.39648,12.93115-16.54297,3.0293-7.14355,4.54346-15.53125,4.54346-25.16406,0-9.62988-1.51416-18.01758-4.54346-25.16406-3.02881-7.14355-7.33936-12.65918-12.93115-16.54297-5.59229-3.88086-12.27295-5.8252-20.03809-5.8252-7.61279,0-14.21289,1.94434-19.80518,5.8252-5.5918,3.88379-9.90234,9.39941-12.93164,16.54297-3.02881,7.14648-4.54346,15.53418-4.54346,25.16406,0,9.63281,1.51465,18.02051,4.54346,25.16406,3.0293,7.14648,7.33984,12.66211,12.93164,16.54297,5.59229,3.88379,12.19238,5.82422,19.80518,5.82422Z"/>
    <path d="M822.85059,353.89258v-116.5c4.81299-1.24121,11.104-2.63965,18.87305-4.19434,7.76562-1.55078,17.08545-2.33008,27.95996-2.33008,12.58203,0,22.36816,2.33008,29.3584,6.99023,6.98975,4.66016,11.91943,11.14746,14.79541,19.45605,2.87256,8.31152,4.31055,17.98047,4.31055,29.00781v67.57031h-17.4751v-62.67676c0-11.02734-1.01221-19.80566-3.02881-26.3291-2.021-6.52441-5.43945-11.26074-10.25244-14.21289-4.81641-2.94922-11.49707-4.42773-20.0376-4.42773-6.52441,0-12.27295.38965-17.24219,1.16504-4.97314.7793-8.23486,1.39844-9.78613,1.86426v104.61719h-17.4751Z"/>
    <path d="M964.74756,204.30664c-3.41846,0-6.33105-1.16504-8.7373-3.49512-2.41016-2.33008-3.61133-5.43555-3.61133-9.31982,0-3.72803,1.20117-6.75732,3.61133-9.08691,2.40625-2.33008,5.31885-3.49512,8.7373-3.49512,3.41504,0,6.32764,1.16504,8.73779,3.49512,2.40625,2.32959,3.61133,5.35889,3.61133,9.08691,0,3.88428-1.20508,6.98975-3.61133,9.31982-2.41016,2.33008-5.32275,3.49512-8.73779,3.49512ZM955.89355,353.89258v-120.69434h17.4751v120.69434h-17.4751Z"/>
    <path d="M1063.30615,356.45605c-12.73877,0-23.38037-2.59961-31.92139-7.80566-8.54443-5.20312-14.9917-12.54199-19.33887-22.01855-4.35059-9.47363-6.52393-20.42383-6.52393-32.85352,0-12.58203,2.25-23.60938,6.75684-33.08594,4.50342-9.47266,10.9873-16.89258,19.45557-22.25098,8.46436-5.35938,18.52344-8.03906,30.17334-8.03906,6.36768,0,12.42578.5459,18.17432,1.63086,5.74463,1.08887,10.25195,2.4873,13.51367,4.19434l-4.42676,14.67871c-3.10889-1.39746-6.604-2.5625-10.48486-3.49512-3.88477-.93164-9.01074-1.39746-15.37793-1.39746-12.89551,0-22.71777,4.19434-29.47461,12.58203-6.75732,8.3877-10.13574,20.11816-10.13574,35.18262,0,9.32031,1.39795,17.51562,4.19434,24.58203,2.7959,7.06934,7.29932,12.58203,13.51367,16.54297,6.21094,3.96094,14.44629,5.94141,24.69824,5.94141,6.05811,0,11.37695-.69922,15.96045-2.09668,4.58008-1.39844,7.9585-2.63965,10.13525-3.72852l3.49512,14.91211c-2.95264,1.55469-7.45605,3.0293-13.51416,4.42676-6.05762,1.39844-12.34863,2.09766-18.87256,2.09766Z"/>
    <path d="M1156.04102,356.45605c-8.70068,0-16.46631-1.24512-23.2998-3.72852-6.83691-2.48242-12.19629-6.52441-16.07715-12.11621-3.88428-5.5918-5.82471-12.96777-5.82471-22.13477,0-8.85352,2.17334-16.03711,6.52393-21.55273,4.34668-5.51172,10.36816-9.5127,18.05762-11.99902,7.68896-2.4834,16.34619-3.72852,25.97949-3.72852,4.34668,0,8.93018.38965,13.74658,1.16504,4.81299.7793,7.84229,1.47852,9.0874,2.09766v-6.99023c0-5.2793-.6626-10.36914-1.98047-15.26172-1.32178-4.89258-4.00146-8.89062-8.03857-11.99902-4.04102-3.10547-10.17578-4.66016-18.40723-4.66016-8.54443,0-15.06836.62207-19.57178,1.86328-4.50732,1.24512-7.8457,2.25391-10.01904,3.0293l-2.33008-14.91211c2.7959-1.24121,7.06641-2.40625,12.81494-3.49512,5.74512-1.08496,12.50195-1.63086,20.271-1.63086,11.02734,0,19.76514,1.94434,26.2124,5.8252,6.44385,3.88477,11.104,9.20312,13.97998,15.96094,2.87256,6.75684,4.31055,14.48535,4.31055,23.18262v75.72559c-3.26172.7793-9.08691,1.86426-17.4751,3.26172-8.3877,1.39844-17.70801,2.09766-27.95996,2.09766ZM1158.604,341.54395c5.43555,0,10.32861-.19336,14.6792-.58301,4.34668-.38574,7.99854-.8916,10.95117-1.51465v-40.54199c-1.55469-.77539-4.19434-1.55078-7.92236-2.33008-3.72803-.77539-8.54443-1.16504-14.4458-1.16504-4.97314,0-10.01904.54688-15.14502,1.63184-5.12598,1.08789-9.43652,3.26172-12.93164,6.52344-3.49463,3.26172-5.24219,8.15527-5.24219,14.67871,0,8.70117,2.71582,14.75977,8.15479,18.1748,5.43555,3.41797,12.73486,5.12598,21.90186,5.12598Z"/>
    <path d="M1271.84033,355.98926c-7.45605-.3125-13.63037-1.55469-18.52344-3.72754-4.89307-2.17383-8.50439-5.55176-10.83447-10.13574-2.33008-4.58008-3.49512-10.75391-3.49512-18.52344v-147.48877l17.4751-3.0293v149.35303c0,7.45605,1.35791,12.27246,4.07764,14.44629,2.71582,2.17676,7.33936,3.72754,13.86328,4.66016l-2.56299,14.44531Z"/>
  </g>
  <rect class="cls-1" width="232.955" height="400"/>
  <path class="cls-2" d="M29.3844,264.63989c1.985-13.177,14.274-22.256,27.442-20.28,13.186,1.97701,22.264,14.265,20.28,27.442-1.968,13.17799-14.256,22.255-27.442,20.279-13.169-1.97601-22.248-14.264-20.28-27.441"/>
  <path class="cls-2" d="M130.1423,210.2558c2.79601-13.03101,15.62-21.323,28.64999-18.536,13.03,2.79599,21.33101,15.62,18.53601,28.64999-2.79501,13.03101-15.619,21.332-28.65001,18.536-13.03-2.79599-21.33199-15.618-18.536-28.64999"/>
  <path class="cls-2" d="M107.6711,330.319c-17.379-3.727-31.911-14.827-40.075-30.566-6.437,2.925-13.669,3.82301-20.624,2.537,9.872,24.266,30.824,41.888,56.54,47.393,5.661,1.218,11.408,1.805,17.138,1.769-4.436-5.825-6.903-12.848-7.05901-20.175-1.985-.216-3.969-.545-5.92-.958"/>
  <path class="cls-2" d="M124.7058,325.391c2.796-13.021,15.62-21.322,28.65-18.536,13.03,2.79601,21.33301,15.62,18.537,28.651-2.79601,13.03-15.62001,21.331-28.651,18.535-13.03-2.787-21.332-15.619-18.536-28.65"/>
  <path class="cls-2" d="M181.8842,321.5859c7.491-9.45,12.772-20.633,15.327-32.526,4.435-20.717.29201-42.456-11.373-60.09499-2.77899,6.549-7.508,12.09-13.56599,15.897,6.507,12.26999,8.492,26.43199,5.57401,40.049-1.43201,6.67-3.95201,12.953-7.507,18.7,5.661,4.659,9.68199,10.924,11.545,17.975"/>
  <path class="cls-2" d="M51.3896,233.6158c.621-.033,1.226-.05099,1.847-.05099,2.434,0,4.867.258,7.284.776,3.917.847,7.628,2.34,11.01,4.43599,10.85699-15.62,28.392-24.99899,47.376-25.336.104-1.81999.34599-3.64099.72499-5.437,1.10501-5.16901,3.36601-10.00099,6.59401-14.13499-30.342-2.39801-59.821,13.25499-74.836,39.74699"/>
</svg>