<svg width="538.152" height="152.232" viewBox="0 0 142.386 40.278" xml:space="preserve" xmlns:xlink="http://www.w3.org/1999/xlink" xmlns="http://www.w3.org/2000/svg"><defs><linearGradient id="e"><stop style="stop-color:#00add8;stop-opacity:1" offset="0"/></linearGradient><linearGradient id="d"><stop style="stop-color:#f9a11d;stop-opacity:1" offset="0"/></linearGradient><linearGradient id="c"><stop style="stop-color:#2c3c69;stop-opacity:1" offset="0"/></linearGradient><linearGradient id="b"><stop style="stop-color:#fff;stop-opacity:1" offset="0"/></linearGradient><linearGradient id="a" gradientTransform="rotate(180 5.829 17.062) scale(.0049)"><stop style="stop-color:#4db969;stop-opacity:1" offset="0"/></linearGradient><linearGradient xlink:href="#a" id="f" x1="0" y1="3.522" x2="7.043" y2="3.522" gradientUnits="userSpaceOnUse" gradientTransform="matrix(.39612 0 0 .39612 70.517 82.635)"/><linearGradient xlink:href="#b" id="g" x1="81.013" y1="88.518" x2="88.057" y2="88.518" gradientUnits="userSpaceOnUse" gradientTransform="matrix(.39612 0 0 .39612 41.215 48.966)"/><linearGradient xlink:href="#c" id="i" x1="84.535" y1="88.518" x2="91.578" y2="88.518" gradientUnits="userSpaceOnUse" gradientTransform="matrix(.39612 0 0 .39612 45.4 48.966)"/><linearGradient xlink:href="#d" id="j" x1="91.578" y1="88.518" x2="98.622" y2="88.518" gradientUnits="userSpaceOnUse" gradientTransform="matrix(.39612 0 0 .39612 45.4 48.966)"/><linearGradient xlink:href="#e" id="h" x1="77.492" y1="88.518" x2="84.535" y2="88.518" gradientUnits="userSpaceOnUse" gradientTransform="matrix(.39612 0 0 .39612 45.4 48.966)"/></defs><path style="display:inline;fill:none;stroke:#fff;stroke-width:2.64583;stroke-linecap:butt;stroke-linejoin:miter;stroke-dasharray:none;stroke-opacity:1" d="M137.847 51.761c-6.952 0-6.952 4.973-6.952 6.025v14.971c0 .62 0 6.053 6.952 6.053s6.735-5.423 6.735-6.053V57.786c0-1.013.217-6.025-6.735-6.025z" transform="translate(-8.81 -45.147)"/><path style="display:inline;fill:none;stroke:#fff;stroke-width:2.64583;stroke-linecap:square;stroke-linejoin:miter;stroke-dasharray:none;stroke-opacity:1" d="M122.422 57.786c0-1.013.217-6.025-6.735-6.025s-6.952 4.973-6.952 6.025v14.971c0 .62 0 6.053 6.952 6.053s6.735-5.423 6.735-6.053v-7.465h-4.53" transform="translate(-8.81 -45.147)"/><g transform="translate(-8.81 -45.147)"><path style="fill:none;fill-opacity:1;stroke:#fff;stroke-width:2.13307;stroke-linecap:round;stroke-linejoin:round;stroke-dasharray:none;stroke-opacity:1;paint-order:fill markers stroke" transform="rotate(90)" d="M58.875-71.547h-4.437c-3.22 0-5.887-2.772-5.89-5.993 0-3.221 2.663-5.997 5.884-6 3.22-.002 4.443 0 4.443 0"/><rect style="display:inline;fill:none;fill-opacity:1;stroke:#fff;stroke-width:2.11667;stroke-linecap:round;stroke-linejoin:round;stroke-dasharray:none;stroke-opacity:1;paint-order:normal" width="17.047" height="12.13" x="68.968" y="58.875" ry="1.725"/><path style="fill:none;stroke:#fff;stroke-width:1.85208;stroke-linecap:round;stroke-linejoin:round;stroke-dasharray:none;stroke-opacity:1" d="M57.334 76.503V73.13c0-1.472.874-2.83 2.724-2.83h5.092m-5.51 8.511a2.307 2.307 0 0 1-2.306 2.307 2.307 2.307 0 0 1-2.307-2.307 2.307 2.307 0 0 1 2.307-2.307 2.307 2.307 0 0 1 2.307 2.307z"/><path style="fill:none;stroke:#fff;stroke-width:1.85208;stroke-linecap:round;stroke-linejoin:miter;stroke-dasharray:none;stroke-opacity:1" d="M59.64 65.292h5.552m-5.551 0a2.307 2.307 0 0 1-2.307 2.307 2.307 2.307 0 0 1-2.307-2.307 2.307 2.307 0 0 1 2.307-2.307 2.307 2.307 0 0 1 2.307 2.307z"/><path style="fill:none;stroke:#fff;stroke-width:1.85208;stroke-linecap:round;stroke-linejoin:round;stroke-dasharray:none;stroke-opacity:1" d="M57.334 54.068v3.374c0 1.472.874 2.83 2.724 2.83h5.092m-5.51-8.51a2.307 2.307 0 0 1-2.306 2.306 2.307 2.307 0 0 1-2.307-2.307 2.307 2.307 0 0 1 2.307-2.307 2.307 2.307 0 0 1 2.307 2.307z"/><g><path style="fill:none;stroke:#fff;stroke-width:1.85208;stroke-linecap:round;stroke-linejoin:round;stroke-dasharray:none;stroke-opacity:1" d="M97.676 76.503V73.13c0-1.472-.874-2.83-2.724-2.83H89.86m5.509 8.511a2.307 2.307 0 0 0 2.307 2.307 2.307 2.307 0 0 0 2.307-2.307 2.307 2.307 0 0 0-2.307-2.307 2.307 2.307 0 0 0-2.307 2.307z"/><path style="fill:none;stroke:#fff;stroke-width:1.85208;stroke-linecap:round;stroke-linejoin:miter;stroke-dasharray:none;stroke-opacity:1" d="M95.369 65.292h-5.551m5.55 0a2.307 2.307 0 0 0 2.308 2.307 2.307 2.307 0 0 0 2.307-2.307 2.307 2.307 0 0 0-2.307-2.307 2.307 2.307 0 0 0-2.307 2.307z"/><path style="fill:none;stroke:#fff;stroke-width:1.85208;stroke-linecap:round;stroke-linejoin:round;stroke-dasharray:none;stroke-opacity:1" d="M97.676 54.068v3.374c0 1.472-.874 2.83-2.724 2.83H89.86m5.509-8.51a2.307 2.307 0 0 0 2.307 2.307 2.307 2.307 0 0 0 2.307-2.308 2.307 2.307 0 0 0-2.307-2.307 2.307 2.307 0 0 0-2.307 2.307z"/></g><g style="display:inline"><g style="display:inline"><path class="cls-3" d="M89.337 56.139a4.498 4.498 0 0 0-1.163.154 4.498 4.498 0 0 0-1.083.448 4.498 4.498 0 0 0-.93.714 4.498 4.498 0 0 0-.714.93L78.61 70.21a4.498 4.498 0 0 0-.449 1.085 4.498 4.498 0 0 0-.153 1.164 4.498 4.498 0 0 0 .153 1.165 4.498 4.498 0 0 0 .45 1.084l4.478 7.755a4.498 4.498 0 0 0 .715.928 4.498 4.498 0 0 0 .93.714 4.498 4.498 0 0 0 1.081.448 4.498 4.498 0 0 0 1.161.154h13.674a4.498 4.498 0 0 0 1.161-.154 4.498 4.498 0 0 0 1.082-.448 4.498 4.498 0 0 0 .93-.714 4.498 4.498 0 0 0 .714-.928l4.479-7.739a4.498 4.498 0 0 0 .125-.23 4.498 4.498 0 0 0 .11-.237 4.498 4.498 0 0 0 .096-.243 4.498 4.498 0 0 0 .083-.249 4.498 4.498 0 0 0 .068-.253 4.498 4.498 0 0 0 .052-.256 4.498 4.498 0 0 0 .038-.259 4.498 4.498 0 0 0 .023-.26 4.498 4.498 0 0 0 .007-.262 4.498 4.498 0 0 0-.007-.261 4.498 4.498 0 0 0-.023-.261 4.498 4.498 0 0 0-.038-.26 4.498 4.498 0 0 0-.052-.255 4.498 4.498 0 0 0-.068-.253 4.498 4.498 0 0 0-.083-.248 4.498 4.498 0 0 0-.096-.244 4.498 4.498 0 0 0-.11-.237 4.498 4.498 0 0 0-.125-.23l-6.837-11.84a4.498 4.498 0 0 0-.714-.93 4.498 4.498 0 0 0-.93-.714 4.498 4.498 0 0 0-1.083-.448 4.498 4.498 0 0 0-1.162-.154z" style="fill:url(#a);stroke-width:.264583" transform="translate(27.379 27.322) scale(.53418)"/><path class="cls-4" d="M89.686 74.239a.749.749 0 0 0 .648-.373l.648-1.122.516-.894.026-.045 1.64-2.845a.749.749 0 0 1 1.297 0l1.104 1.91a.746.746 0 0 0 .648.376.749.749 0 0 0 .648-1.121l-2.4-4.157a.749.749 0 0 0-1.296 0l-4.128 7.144a.749.749 0 0 0 .649 1.127z" style="fill:#fff;stroke-width:.264583" transform="translate(27.379 27.322) scale(.53418)"/><path class="cls-4" d="M101.946 75.736H87.093a.749.749 0 0 1-.649-1.121l6.72-11.642a.749.749 0 0 1 1.297 0l4.993 8.641a.749.749 0 0 1-.648 1.122h-5.662a.746.746 0 0 0-.648.373.749.749 0 0 0 .648 1.122h8.257a.749.749 0 0 0 .649-1.122l-6.996-12.118a.749.749 0 0 0-.648-.376h-1.18a.749.749 0 0 0-.648.376l-8.131 14.084a.743.743 0 0 0 0 .749l.59 1.021a.743.743 0 0 0 .645.373h16.267a.743.743 0 0 0 .646-.373.746.746 0 0 0-.649-1.109zM102.044 70.125l1.572 2.72a.746.746 0 0 0 1.294 0 .743.743 0 0 0 0-.75l-1.572-2.717a.749.749 0 0 0-1.296 0 .751.751 0 0 0 .003.747zM97.21 61.75l.514.89a.746.746 0 0 0 1.293 0 .738.738 0 0 0 0-.747l-.51-.886a.749.749 0 0 0-.648-.376.749.749 0 0 0-.649 1.12zM99.451 65.632l.866 1.5a.749.749 0 0 0 1.296 0 .757.757 0 0 0 0-.749l-.865-1.5a.749.749 0 0 0-1.297 0 .738.738 0 0 0 0 .749zM100.219 78.729h-1.776a.749.749 0 0 0-.648 1.122.749.749 0 0 0 .648.375h1.773a.746.746 0 0 0 .648-.375.749.749 0 0 0-.645-1.122zM94.988 78.729a.749.749 0 0 0-.648 1.122.746.746 0 0 0 .648.375.749.749 0 0 0 .648-1.124.751.751 0 0 0-.648-.373zM88.178 65.63l2.238-3.88a.749.749 0 0 0-.648-1.121.749.749 0 0 0-.649.375l-2.238 3.877a.743.743 0 0 0 0 .748.749.749 0 0 0 1.297 0zM84.024 72.844l2.436-4.22a.743.743 0 0 0 0-.748.746.746 0 0 0-1.293 0l-2.437 4.22a.743.743 0 0 0 0 .748.746.746 0 0 0 1.294 0zM91.532 78.729h-4.124a.749.749 0 0 0-.646 1.122.746.746 0 0 0 .648.375h4.122a.751.751 0 0 0 .649-1.124.751.751 0 0 0-.649-.373z" style="fill:#fff;stroke-width:.264583" transform="translate(27.379 27.322) scale(.53418)"/></g></g></g><path style="display:inline;fill:none;stroke:#fff;stroke-width:2.64583;stroke-linecap:square;stroke-linejoin:miter;stroke-dasharray:none;stroke-opacity:1" d="M43.631 65.292H32.914M46.199 78.81H32.914V51.761m0 0h13.285" transform="translate(-8.81 -45.147)"/><path style="display:inline;fill:none;stroke:#fff;stroke-width:2.38125;stroke-linecap:square;stroke-linejoin:miter;stroke-dasharray:none;stroke-opacity:1" d="M15.425 78.81h10.9m-10.9-27.049v27.05m0-27.05v27.05" transform="translate(-8.81 -45.147)"/></svg>