<svg width="538.152" height="152.232" viewBox="0 0 142.386 40.278" xml:space="preserve" xmlns:xlink="http://www.w3.org/1999/xlink" xmlns="http://www.w3.org/2000/svg"><defs><linearGradient id="e"><stop style="stop-color:#00add8;stop-opacity:1" offset="0"/></linearGradient><linearGradient id="d"><stop style="stop-color:#f9a11d;stop-opacity:1" offset="0"/></linearGradient><linearGradient id="c"><stop style="stop-color:#2c3c69;stop-opacity:1" offset="0"/></linearGradient><linearGradient id="b"><stop style="stop-color:#fff;stop-opacity:1" offset="0"/></linearGradient><linearGradient id="a" gradientTransform="rotate(180 5.829 17.062) scale(.0049)"><stop style="stop-color:#4db969;stop-opacity:1" offset="0"/></linearGradient><linearGradient xlink:href="#a" id="f" x1="0" y1="3.522" x2="7.043" y2="3.522" gradientUnits="userSpaceOnUse" gradientTransform="matrix(.39612 0 0 .39612 70.517 82.635)"/><linearGradient xlink:href="#b" id="g" x1="81.013" y1="88.518" x2="88.057" y2="88.518" gradientUnits="userSpaceOnUse" gradientTransform="matrix(.39612 0 0 .39612 41.215 48.966)"/><linearGradient xlink:href="#c" id="i" x1="84.535" y1="88.518" x2="91.578" y2="88.518" gradientUnits="userSpaceOnUse" gradientTransform="matrix(.39612 0 0 .39612 45.4 48.966)"/><linearGradient xlink:href="#d" id="j" x1="91.578" y1="88.518" x2="98.622" y2="88.518" gradientUnits="userSpaceOnUse" gradientTransform="matrix(.39612 0 0 .39612 45.4 48.966)"/><linearGradient xlink:href="#e" id="h" x1="77.492" y1="88.518" x2="84.535" y2="88.518" gradientUnits="userSpaceOnUse" gradientTransform="matrix(.39612 0 0 .39612 45.4 48.966)"/></defs><path style="display:inline;fill:none;stroke:url(#e);stroke-width:2.64583;stroke-linecap:butt;stroke-linejoin:miter;stroke-dasharray:none;stroke-opacity:1" d="M137.847 51.761c-6.952 0-6.952 4.973-6.952 6.025v14.971c0 .62 0 6.053 6.952 6.053s6.735-5.423 6.735-6.053V57.786c0-1.013.217-6.025-6.735-6.025z" transform="translate(-8.81 -45.147)"/><path style="display:inline;fill:none;stroke:url(#e);stroke-width:2.64583;stroke-linecap:square;stroke-linejoin:miter;stroke-dasharray:none;stroke-opacity:1" d="M122.422 57.786c0-1.013.217-6.025-6.735-6.025s-6.952 4.973-6.952 6.025v14.971c0 .62 0 6.053 6.952 6.053s6.735-5.423 6.735-6.053v-7.465h-4.53" transform="translate(-8.81 -45.147)"/><g transform="translate(-8.81 -45.147)"><path style="fill:none;fill-opacity:1;stroke:url(#a);stroke-width:2.13307;stroke-linecap:round;stroke-linejoin:round;stroke-dasharray:none;stroke-opacity:1;paint-order:fill markers stroke" transform="rotate(90)" d="M58.875-71.547h-4.437c-3.22 0-5.887-2.772-5.89-5.993 0-3.221 2.663-5.997 5.884-6 3.22-.002 4.443 0 4.443 0"/><rect style="display:inline;fill:url(#a);fill-opacity:1;stroke:url(#acme-green);stroke-width:2.11667;stroke-linecap:round;stroke-linejoin:round;stroke-dasharray:none;stroke-opacity:1;paint-order:normal" width="17.047" height="12.13" x="68.968" y="58.875" ry="1.725"/><path style="fill:none;stroke:url(#d);stroke-width:1.85208;stroke-linecap:round;stroke-linejoin:round;stroke-dasharray:none;stroke-opacity:1" d="M57.334 76.503V73.13c0-1.472.874-2.83 2.724-2.83h5.092m-5.51 8.511a2.307 2.307 0 0 1-2.306 2.307 2.307 2.307 0 0 1-2.307-2.307 2.307 2.307 0 0 1 2.307-2.307 2.307 2.307 0 0 1 2.307 2.307z"/><path style="fill:none;stroke:url(#d);stroke-width:1.85208;stroke-linecap:round;stroke-linejoin:miter;stroke-dasharray:none;stroke-opacity:1" d="M59.64 65.292h5.552m-5.551 0a2.307 2.307 0 0 1-2.307 2.307 2.307 2.307 0 0 1-2.307-2.307 2.307 2.307 0 0 1 2.307-2.307 2.307 2.307 0 0 1 2.307 2.307z"/><path style="fill:none;stroke:url(#d);stroke-width:1.85208;stroke-linecap:round;stroke-linejoin:round;stroke-dasharray:none;stroke-opacity:1" d="M57.334 54.068v3.374c0 1.472.874 2.83 2.724 2.83h5.092m-5.51-8.51a2.307 2.307 0 0 1-2.306 2.306 2.307 2.307 0 0 1-2.307-2.307 2.307 2.307 0 0 1 2.307-2.307 2.307 2.307 0 0 1 2.307 2.307z"/><g><path style="fill:none;stroke:url(#e);stroke-width:1.85208;stroke-linecap:round;stroke-linejoin:round;stroke-dasharray:none;stroke-opacity:1" d="M97.676 76.503V73.13c0-1.472-.874-2.83-2.724-2.83H89.86m5.509 8.511a2.307 2.307 0 0 0 2.307 2.307 2.307 2.307 0 0 0 2.307-2.307 2.307 2.307 0 0 0-2.307-2.307 2.307 2.307 0 0 0-2.307 2.307z"/><path style="fill:none;stroke:url(#e);stroke-width:1.85208;stroke-linecap:round;stroke-linejoin:miter;stroke-dasharray:none;stroke-opacity:1" d="M95.369 65.292h-5.551m5.55 0a2.307 2.307 0 0 0 2.308 2.307 2.307 2.307 0 0 0 2.307-2.307 2.307 2.307 0 0 0-2.307-2.307 2.307 2.307 0 0 0-2.307 2.307z"/><path style="fill:none;stroke:url(#e);stroke-width:1.85208;stroke-linecap:round;stroke-linejoin:round;stroke-dasharray:none;stroke-opacity:1" d="M97.676 54.068v3.374c0 1.472-.874 2.83-2.724 2.83H89.86m5.509-8.51a2.307 2.307 0 0 0 2.307 2.307 2.307 2.307 0 0 0 2.307-2.308 2.307 2.307 0 0 0-2.307-2.307 2.307 2.307 0 0 0-2.307 2.307z"/></g><g><g transform="translate(-.167 -.831)" style="fill:url(#b)"><path class="cls-4" d="M75.375 67.88a.414.414 0 0 0 .358-.206l.358-.62.285-.494.015-.024.906-1.572a.414.414 0 0 1 .716 0l.61 1.056a.412.412 0 0 0 .358.207.414.414 0 0 0 .358-.62l-1.326-2.296a.414.414 0 0 0-.716 0l-2.28 3.947a.414.414 0 0 0 .358.623z" style="fill:url(#b);stroke-width:.146189"/><path class="cls-4" d="M82.149 68.708h-8.207a.414.414 0 0 1-.358-.62l3.713-6.432a.414.414 0 0 1 .716 0l2.759 4.774a.414.414 0 0 1-.358.62h-3.129a.412.412 0 0 0-.358.206.414.414 0 0 0 .358.62h4.563a.414.414 0 0 0 .358-.62l-3.865-6.695a.414.414 0 0 0-.358-.208h-.652a.414.414 0 0 0-.359.208l-4.492 7.782a.41.41 0 0 0 0 .413l.326.565a.41.41 0 0 0 .357.206h8.988a.41.41 0 0 0 .356-.206.412.412 0 0 0-.358-.613zM82.203 65.607l.868 1.503a.412.412 0 0 0 .715 0 .41.41 0 0 0 0-.414l-.868-1.5a.414.414 0 0 0-.716 0 .415.415 0 0 0 .001.411zM79.532 60.98l.284.492a.412.412 0 0 0 .715 0 .408.408 0 0 0 0-.413l-.282-.49a.414.414 0 0 0-.359-.207.414.414 0 0 0-.358.618ZM80.77 63.125l.479.829a.414.414 0 0 0 .716 0 .418.418 0 0 0 0-.414l-.478-.829a.414.414 0 0 0-.717 0 .408.408 0 0 0 0 .414zM81.194 70.361h-.98a.414.414 0 0 0-.359.62.414.414 0 0 0 .359.208h.979a.412.412 0 0 0 .358-.208.414.414 0 0 0-.357-.62ZM78.304 70.361a.414.414 0 0 0-.358.62.412.412 0 0 0 .358.208.414.414 0 0 0 .358-.621.415.415 0 0 0-.358-.207ZM74.541 63.124l1.237-2.144a.414.414 0 0 0-.358-.62.414.414 0 0 0-.358.208l-1.237 2.142a.41.41 0 0 0 0 .414.414.414 0 0 0 .716 0zM72.246 67.11l1.347-2.332a.41.41 0 0 0 0-.413.412.412 0 0 0-.715 0l-1.347 2.331a.41.41 0 0 0 0 .414.412.412 0 0 0 .715 0zM76.395 70.361h-2.279a.414.414 0 0 0-.357.62.412.412 0 0 0 .358.208h2.278a.415.415 0 0 0 .358-.621.415.415 0 0 0-.358-.207Z" style="fill:url(#b);stroke-width:.146189"/></g></g></g><path style="display:inline;fill:none;stroke:url(#d);stroke-width:2.64583;stroke-linecap:square;stroke-linejoin:miter;stroke-dasharray:none;stroke-opacity:1" d="M43.631 65.292H32.914M46.199 78.81H32.914V51.761m0 0h13.285" transform="translate(-8.81 -45.147)"/><path style="display:inline;fill:none;stroke:url(#d);stroke-width:2.38125;stroke-linecap:square;stroke-linejoin:miter;stroke-dasharray:none;stroke-opacity:1" d="M15.425 78.81h10.9m-10.9-27.049v27.05m0-27.05v27.05" transform="translate(-8.81 -45.147)"/></svg>