<?xml version="1.0" encoding="UTF-8" standalone="no"?>
<!DOCTYPE svg PUBLIC "-//W3C//DTD SVG 1.1//EN" "http://www.w3.org/Graphics/SVG/1.1/DTD/svg11.dtd">
<svg width="100%" height="100%" viewBox="0 0 1418 315" version="1.1" xmlns="http://www.w3.org/2000/svg" xmlns:xlink="http://www.w3.org/1999/xlink" xml:space="preserve" xmlns:serif="http://www.serif.com/" style="fill-rule:evenodd;clip-rule:evenodd;stroke-linejoin:round;stroke-miterlimit:2;">
    <g transform="matrix(1.33333,0,0,1.33333,0,0)">
        <g id="airSSL" transform="matrix(1,0,0,1,607.996,216.5)">
            <g transform="matrix(300,0,0,300,-433.286,0)">
                <path d="M0.089,-0.356C0.095,-0.389 0.099,-0.411 0.101,-0.423C0.102,-0.435 0.105,-0.454 0.108,-0.48C0.202,-0.501 0.283,-0.511 0.35,-0.511C0.389,-0.511 0.424,-0.507 0.456,-0.498C0.488,-0.49 0.512,-0.476 0.53,-0.457C0.548,-0.437 0.557,-0.41 0.557,-0.374C0.557,-0.356 0.555,-0.315 0.55,-0.251C0.545,-0.187 0.541,-0.104 0.539,-0C0.507,-0.001 0.475,-0.001 0.443,-0.001C0.413,-0.001 0.38,-0.001 0.346,-0C0.35,-0.036 0.355,-0.11 0.36,-0.222C0.348,-0.216 0.338,-0.212 0.331,-0.209C0.325,-0.206 0.312,-0.202 0.295,-0.197C0.277,-0.192 0.263,-0.188 0.254,-0.184C0.244,-0.181 0.235,-0.176 0.228,-0.17C0.22,-0.165 0.215,-0.159 0.212,-0.153C0.209,-0.147 0.208,-0.141 0.208,-0.134C0.208,-0.123 0.212,-0.113 0.221,-0.105C0.229,-0.098 0.243,-0.094 0.263,-0.094C0.27,-0.094 0.277,-0.094 0.285,-0.095C0.292,-0.097 0.303,-0.099 0.317,-0.104C0.307,-0.079 0.296,-0.042 0.283,0.006C0.255,0.01 0.229,0.013 0.204,0.013C0.163,0.013 0.13,0.007 0.103,-0.004C0.076,-0.015 0.055,-0.034 0.041,-0.059C0.026,-0.084 0.019,-0.109 0.019,-0.134C0.019,-0.149 0.022,-0.164 0.027,-0.179C0.032,-0.193 0.041,-0.208 0.052,-0.222C0.064,-0.236 0.077,-0.248 0.092,-0.258C0.108,-0.267 0.128,-0.277 0.155,-0.286C0.181,-0.294 0.215,-0.303 0.256,-0.311C0.273,-0.314 0.288,-0.317 0.302,-0.321C0.317,-0.325 0.327,-0.328 0.333,-0.331C0.339,-0.334 0.344,-0.337 0.347,-0.341C0.351,-0.344 0.354,-0.348 0.355,-0.352C0.357,-0.356 0.358,-0.361 0.358,-0.365C0.358,-0.378 0.353,-0.387 0.342,-0.394C0.332,-0.4 0.316,-0.404 0.296,-0.404C0.24,-0.404 0.171,-0.388 0.089,-0.356Z" style="fill-rule:nonzero;"/>
            </g>
            <g transform="matrix(300,0,0,300,-260.646,0)">
                <path d="M0.071,-0.561C0.073,-0.6 0.074,-0.63 0.074,-0.653C0.074,-0.659 0.074,-0.668 0.073,-0.679C0.113,-0.679 0.146,-0.678 0.172,-0.678C0.209,-0.678 0.241,-0.679 0.269,-0.679C0.268,-0.669 0.267,-0.661 0.267,-0.654L0.264,-0.593C0.264,-0.584 0.263,-0.573 0.263,-0.561C0.231,-0.562 0.2,-0.562 0.17,-0.562C0.14,-0.562 0.107,-0.562 0.071,-0.561ZM0.04,-0C0.045,-0.04 0.048,-0.072 0.05,-0.098C0.053,-0.124 0.055,-0.157 0.057,-0.197C0.059,-0.237 0.061,-0.281 0.062,-0.33C0.064,-0.378 0.065,-0.434 0.066,-0.499C0.109,-0.498 0.142,-0.498 0.168,-0.498C0.191,-0.498 0.224,-0.498 0.268,-0.499C0.262,-0.437 0.258,-0.383 0.255,-0.336C0.253,-0.29 0.251,-0.241 0.251,-0.188C0.249,-0.096 0.249,-0.033 0.249,-0C0.21,-0.001 0.177,-0.001 0.149,-0.001C0.121,-0.001 0.085,-0.001 0.04,-0Z" style="fill-rule:nonzero;"/>
            </g>
            <g transform="matrix(300,0,0,300,-176.042,0)">
                <path d="M0.042,-0L0.058,-0.217L0.062,-0.341C0.063,-0.364 0.063,-0.387 0.063,-0.41C0.063,-0.434 0.063,-0.463 0.062,-0.499C0.101,-0.498 0.133,-0.498 0.156,-0.498C0.183,-0.498 0.214,-0.498 0.249,-0.499L0.247,-0.443C0.26,-0.458 0.27,-0.468 0.278,-0.475C0.286,-0.482 0.296,-0.489 0.306,-0.494C0.317,-0.5 0.327,-0.504 0.339,-0.507C0.35,-0.51 0.362,-0.511 0.374,-0.511C0.386,-0.511 0.399,-0.51 0.414,-0.506C0.414,-0.471 0.415,-0.442 0.416,-0.418L0.419,-0.343C0.402,-0.348 0.385,-0.351 0.369,-0.351C0.35,-0.351 0.333,-0.348 0.319,-0.343C0.305,-0.337 0.292,-0.328 0.281,-0.317C0.27,-0.305 0.262,-0.291 0.255,-0.273C0.249,-0.256 0.244,-0.229 0.241,-0.191C0.239,-0.154 0.237,-0.111 0.237,-0.063C0.237,-0.046 0.238,-0.025 0.239,-0C0.208,-0.001 0.176,-0.001 0.144,-0.001C0.113,-0.001 0.079,-0.001 0.042,-0Z" style="fill-rule:nonzero;"/>
            </g>
            <g transform="matrix(300,0,0,300,-56.1357,0)">
                <path d="M0.043,-0.01C0.039,-0.08 0.034,-0.135 0.028,-0.177C0.065,-0.16 0.097,-0.149 0.126,-0.143C0.154,-0.136 0.179,-0.133 0.201,-0.133C0.229,-0.133 0.252,-0.137 0.269,-0.146C0.286,-0.154 0.294,-0.166 0.294,-0.183C0.294,-0.188 0.293,-0.193 0.292,-0.198C0.29,-0.204 0.287,-0.209 0.282,-0.216C0.278,-0.222 0.271,-0.229 0.263,-0.236L0.171,-0.316C0.149,-0.335 0.134,-0.348 0.126,-0.356C0.108,-0.373 0.095,-0.388 0.085,-0.402C0.076,-0.417 0.069,-0.431 0.064,-0.446C0.06,-0.461 0.058,-0.477 0.058,-0.493C0.058,-0.513 0.061,-0.532 0.068,-0.552C0.075,-0.571 0.086,-0.588 0.1,-0.605C0.114,-0.622 0.132,-0.636 0.155,-0.648C0.178,-0.66 0.203,-0.668 0.229,-0.673C0.256,-0.677 0.283,-0.679 0.311,-0.679C0.366,-0.679 0.426,-0.673 0.491,-0.66C0.492,-0.638 0.493,-0.617 0.494,-0.598C0.495,-0.58 0.499,-0.547 0.503,-0.5C0.473,-0.512 0.446,-0.52 0.421,-0.525C0.397,-0.53 0.375,-0.532 0.357,-0.532C0.332,-0.532 0.311,-0.528 0.294,-0.518C0.277,-0.509 0.269,-0.497 0.269,-0.483C0.269,-0.476 0.27,-0.47 0.273,-0.464C0.276,-0.458 0.28,-0.45 0.288,-0.442C0.295,-0.434 0.304,-0.425 0.316,-0.415C0.328,-0.405 0.346,-0.39 0.371,-0.371L0.406,-0.343C0.417,-0.334 0.428,-0.324 0.44,-0.312C0.452,-0.3 0.462,-0.288 0.471,-0.276C0.48,-0.265 0.487,-0.254 0.491,-0.244C0.496,-0.234 0.5,-0.225 0.502,-0.215C0.504,-0.205 0.505,-0.194 0.505,-0.183C0.505,-0.153 0.498,-0.125 0.484,-0.099C0.47,-0.072 0.451,-0.051 0.425,-0.033C0.399,-0.016 0.371,-0.004 0.34,0.002C0.309,0.009 0.277,0.013 0.243,0.013C0.19,0.013 0.123,0.005 0.043,-0.01Z" style="fill-rule:nonzero;"/>
            </g>
            <g transform="matrix(300,0,0,300,100.685,0)">
                <path d="M0.043,-0.01C0.039,-0.08 0.034,-0.135 0.028,-0.177C0.065,-0.16 0.097,-0.149 0.126,-0.143C0.154,-0.136 0.179,-0.133 0.201,-0.133C0.229,-0.133 0.252,-0.137 0.269,-0.146C0.286,-0.154 0.294,-0.166 0.294,-0.183C0.294,-0.188 0.293,-0.193 0.292,-0.198C0.29,-0.204 0.287,-0.209 0.282,-0.216C0.278,-0.222 0.271,-0.229 0.263,-0.236L0.171,-0.316C0.149,-0.335 0.134,-0.348 0.126,-0.356C0.108,-0.373 0.095,-0.388 0.085,-0.402C0.076,-0.417 0.069,-0.431 0.064,-0.446C0.06,-0.461 0.058,-0.477 0.058,-0.493C0.058,-0.513 0.061,-0.532 0.068,-0.552C0.075,-0.571 0.086,-0.588 0.1,-0.605C0.114,-0.622 0.132,-0.636 0.155,-0.648C0.178,-0.66 0.203,-0.668 0.229,-0.673C0.256,-0.677 0.283,-0.679 0.311,-0.679C0.366,-0.679 0.426,-0.673 0.491,-0.66C0.492,-0.638 0.493,-0.617 0.494,-0.598C0.495,-0.58 0.499,-0.547 0.503,-0.5C0.473,-0.512 0.446,-0.52 0.421,-0.525C0.397,-0.53 0.375,-0.532 0.357,-0.532C0.332,-0.532 0.311,-0.528 0.294,-0.518C0.277,-0.509 0.269,-0.497 0.269,-0.483C0.269,-0.476 0.27,-0.47 0.273,-0.464C0.276,-0.458 0.28,-0.45 0.288,-0.442C0.295,-0.434 0.304,-0.425 0.316,-0.415C0.328,-0.405 0.346,-0.39 0.371,-0.371L0.406,-0.343C0.417,-0.334 0.428,-0.324 0.44,-0.312C0.452,-0.3 0.462,-0.288 0.471,-0.276C0.48,-0.265 0.487,-0.254 0.491,-0.244C0.496,-0.234 0.5,-0.225 0.502,-0.215C0.504,-0.205 0.505,-0.194 0.505,-0.183C0.505,-0.153 0.498,-0.125 0.484,-0.099C0.47,-0.072 0.451,-0.051 0.425,-0.033C0.399,-0.016 0.371,-0.004 0.34,0.002C0.309,0.009 0.277,0.013 0.243,0.013C0.19,0.013 0.123,0.005 0.043,-0.01Z" style="fill-rule:nonzero;"/>
            </g>
            <g transform="matrix(300,0,0,300,257.505,0)">
                <path d="M0.044,-0C0.052,-0.077 0.058,-0.139 0.062,-0.188C0.068,-0.277 0.074,-0.365 0.077,-0.452C0.08,-0.539 0.082,-0.611 0.082,-0.667C0.126,-0.666 0.166,-0.666 0.2,-0.666C0.223,-0.666 0.256,-0.666 0.299,-0.667L0.288,-0.49L0.273,-0.213L0.271,-0.146C0.327,-0.145 0.363,-0.144 0.38,-0.144C0.466,-0.144 0.531,-0.145 0.575,-0.147L0.564,-0C0.478,-0.001 0.397,-0.001 0.319,-0.001C0.215,-0.001 0.123,-0.001 0.044,-0Z" style="fill-rule:nonzero;"/>
            </g>
        </g>
        <g id="FairSSL-F" serif:id="FairSSL F" transform="matrix(1,0,0,1,97.9962,216.5)">
            <g transform="matrix(300,0,0,300,-92.0654,0)">
                <path d="M0.051,-0C0.058,-0.066 0.062,-0.119 0.065,-0.159C0.069,-0.218 0.073,-0.3 0.076,-0.404C0.08,-0.507 0.082,-0.577 0.082,-0.613L0.082,-0.667C0.179,-0.666 0.271,-0.666 0.355,-0.666C0.44,-0.666 0.522,-0.666 0.6,-0.667C0.595,-0.592 0.592,-0.543 0.592,-0.52L0.55,-0.521L0.481,-0.522L0.385,-0.522C0.374,-0.522 0.342,-0.522 0.288,-0.521L0.284,-0.407L0.354,-0.406L0.434,-0.406C0.456,-0.406 0.491,-0.406 0.538,-0.407C0.535,-0.346 0.533,-0.298 0.533,-0.263C0.48,-0.264 0.442,-0.265 0.416,-0.265C0.373,-0.265 0.327,-0.264 0.276,-0.263L0.271,-0.087L0.27,-0.021L0.27,-0L0.165,-0.001C0.157,-0.001 0.119,-0.001 0.051,-0Z" style="fill-rule:nonzero;"/>
            </g>
        </g>
    </g>
</svg>
