<?xml version="1.0" encoding="UTF-8" standalone="no"?>
<!-- Created with Inkscape (http://www.inkscape.org/) -->

<svg
   width="46.279419mm"
   height="34.296394mm"
   viewBox="0 0 46.279419 34.296394"
   version="1.1"
   id="svg1"
   xmlns="http://www.w3.org/2000/svg"
   xmlns:svg="http://www.w3.org/2000/svg">
  <defs
     id="defs1">
    <linearGradient
       id="gopher-blue"
       gradientTransform="translate(-15.220473,185.08081)">
      <stop
         style="stop-color:#00add8;stop-opacity:1;"
         offset="0"
         id="stop2765" />
    </linearGradient>
    <linearGradient
       id="acme-green"
       gradientTransform="matrix(-0.00490061,0,0,-0.00490061,-21.182992,128.91422)">
      <stop
         style="stop-color:#4db969;stop-opacity:1;"
         offset="0"
         id="stop1652" />
    </linearGradient>
    <linearGradient
       id="basic-white">
      <stop
         style="stop-color:#ffffff;stop-opacity:1;"
         offset="0"
         id="stop1016" />
    </linearGradient>
    <linearGradient
       id="le-orange"
       gradientTransform="translate(-15.220473,185.08081)">
      <stop
         style="stop-color:#f9a11d;stop-opacity:1;"
         offset="0"
         id="stop2759" />
    </linearGradient>
  </defs>
  <g
     id="layer1"
     transform="translate(-40.481249,-64.029167)">
    <path
       id="path1791-4-0"
       style="fill:none;stroke:url(#gopher-blue);stroke-width:1.32292;stroke-linecap:round;stroke-linejoin:round;stroke-dasharray:none;stroke-opacity:1"
       d="m 83.792209,93.049903 v -3.3738 c 0,-1.4719 -0.8743,-2.8296 -2.7244,-2.8296 h -5.0917 m 5.509,8.5105 c 0,0.6119 0.243,1.1987 0.6757,1.6314 0.4327,0.4326 1.0195,0.6757 1.6314,0.6757 0.6118,0 1.1987,-0.2431 1.6313,-0.6757 0.4327,-0.4327 0.6757,-1.0195 0.6757,-1.6314 0,-0.6119 -0.243,-1.1987 -0.6757,-1.6313 -0.4326,-0.4327 -1.0195,-0.6758 -1.6313,-0.6758 -0.6119,0 -1.1987,0.2431 -1.6314,0.6758 -0.4327,0.4326 -0.6757,1.0194 -0.6757,1.6313 z" />
    <path
       id="path1921-4"
       style="fill:none;stroke:url(#gopher-blue);stroke-width:1.32292;stroke-linecap:round;stroke-linejoin:round;stroke-dasharray:none;stroke-opacity:1"
       d="m 81.485109,81.838903 h -5.5511 m 5.5511,0 c 0,0.6119 0.243,1.1987 0.6757,1.6314 0.4327,0.4326 1.0195,0.6757 1.6314,0.6757 0.6118,0 1.1987,-0.2431 1.6313,-0.6757 0.4327,-0.4327 0.6757,-1.0195 0.6757,-1.6314 0,-0.6119 -0.243,-1.1987 -0.6757,-1.6314 -0.4326,-0.4326 -1.0195,-0.6757 -1.6313,-0.6757 -0.6119,0 -1.1987,0.2431 -1.6314,0.6757 -0.4327,0.4327 -0.6757,1.0195 -0.6757,1.6314 z" />
    <path
       id="path1791-6"
       style="fill:none;stroke:url(#gopher-blue);stroke-width:1.32292;stroke-linecap:round;stroke-linejoin:round;stroke-dasharray:none;stroke-opacity:1"
       d="m 83.792209,70.615303 v 3.3739 c 0,1.4719 -0.8743,2.8295 -2.7244,2.8295 h -5.0917 m 5.509,-8.51049 c 0,1.27417 1.0329,2.30709 2.3071,2.30709 1.2741,0 2.307,-1.03292 2.307,-2.30709 0,-0.61187 -0.243,-1.19869 -0.6757,-1.63136 -0.4326,-0.43266 -1.0195,-0.67573 -1.6313,-0.67573 -0.6119,0 -1.1987,0.24307 -1.6314,0.67573 -0.4327,0.43267 -0.6757,1.01949 -0.6757,1.63136 z" />
    <path
       id="path1185"
       style="fill:none;fill-opacity:1;stroke:url(#acme-green);stroke-width:2.13307;stroke-linecap:round;stroke-linejoin:round;stroke-dasharray:none;stroke-opacity:1;paint-order:fill markers stroke"
       d="m 57.663209,75.421703 c 0,0 9e-4,-1.2156 0,-4.4366 -0.001,-3.2211 2.7719,-5.8876 5.993,-5.8894 3.221,-0.0018 5.9969,2.6617 5.9996,5.8827 0.0027,3.2211 0,4.4433 0,4.4433" />
    <rect
       style="display:inline;fill:url(#acme-green);fill-opacity:1;stroke:url(#acme-green);stroke-width:2.11667;stroke-linecap:round;stroke-linejoin:round;stroke-dasharray:none;stroke-opacity:1;paint-order:normal"
       id="rect464"
       width="17.047083"
       height="12.130165"
       x="55.084282"
       y="75.4217"
       ry="1.724849" />
    <g
       id="g6598"
       style="fill:url(#basic-white)"
       transform="translate(-5.073491,61.693603)">
      <path
         class="cls-4"
         d="m 66.3971,21.9027 v 0 c 0.1476,10e-5 0.2841,-0.0785 0.3581,-0.2061 l 0.3582,-0.6199 v 0 l 0.2851,-0.4941 0.0146,-0.0249 v 0 l 0.9064,-1.5715 c 0.0739,-0.1279 0.2104,-0.2066 0.3581,-0.2066 0.1477,0 0.2842,0.0787 0.3582,0.2066 l 0.6096,1.0555 c 0.0735,0.1285 0.2102,0.2077 0.3582,0.2076 v 0 c 0.1475,-2e-4 0.2838,-0.079 0.3576,-0.2067 0.0738,-0.1278 0.074,-0.2852 5e-4,-0.4132 l -1.3259,-2.2966 c -0.074,-0.1279 -0.2105,-0.2066 -0.3582,-0.2066 -0.1477,0 -0.2842,0.0787 -0.3581,0.2066 l -2.2806,3.9471 c -0.075,0.1281 -0.0756,0.2866 -0.0016,0.4153 0.074,0.1287 0.2113,0.2079 0.3598,0.2075 z"
         id="path3842"
         style="fill:url(#basic-white);stroke-width:0.146189" />
      <path
         class="cls-4"
         d="m 73.1715,22.7301 h -8.2071 c -0.1475,-2e-4 -0.2838,-0.0789 -0.3577,-0.2067 -0.0738,-0.1278 -0.074,-0.2852 -4e-4,-0.4131 l 3.7132,-6.4323 c 0.0739,-0.1279 0.2104,-0.2067 0.3581,-0.2067 0.1477,0 0.2842,0.0788 0.3582,0.2067 l 2.7586,4.7745 c 0.0735,0.1279 0.0733,0.2853 -5e-4,0.4131 -0.0739,0.1278 -0.2101,0.2065 -0.3577,0.2067 h -3.1284 c -0.1477,-4e-4 -0.2844,0.0783 -0.3582,0.2062 v 0 c -0.0735,0.1279 -0.0733,0.2853 5e-4,0.4131 0.0738,0.1277 0.2101,0.2065 0.3577,0.2067 h 4.5625 c 0.1476,-2e-4 0.2839,-0.079 0.3577,-0.2067 0.0738,-0.1278 0.074,-0.2852 5e-4,-0.4131 L 69.3632,14.583 C 69.2896,14.4548 69.153,14.3756 69.0051,14.3754 h -0.652 c -0.1479,2e-4 -0.2845,0.0794 -0.3582,0.2076 l -4.4924,7.7816 c -0.0745,0.1279 -0.0745,0.2859 0,0.4138 l 0.326,0.5642 c 0.0734,0.1277 0.2095,0.2064 0.3567,0.2062 h 8.9877 c 0.1473,2e-4 0.2834,-0.0785 0.3567,-0.2062 v 0 c 0.0708,-0.1273 0.0691,-0.2826 -0.0044,-0.4083 -0.0736,-0.1258 -0.208,-0.2034 -0.3537,-0.2042 z"
         id="path3844"
         style="fill:url(#basic-white);stroke-width:0.146189" />
      <path
         class="cls-4"
         d="m 73.2256,19.6294 0.8683,1.5029 c 0.0736,0.1279 0.2099,0.2068 0.3575,0.2068 0.1475,0 0.2839,-0.0789 0.3574,-0.2068 v 0 c 0.0745,-0.1279 0.0745,-0.2859 0,-0.4137 l -0.8684,-1.5014 c -0.0739,-0.1279 -0.2104,-0.2066 -0.3581,-0.2066 -0.1478,0 -0.2843,0.0787 -0.3582,0.2066 v 0 c -0.0726,0.128 -0.0721,0.2848 0.0014,0.4122 z"
         id="path3846"
         style="fill:url(#basic-white);stroke-width:0.146189" />
      <path
         class="cls-4"
         d="m 70.5547,15.0026 0.2836,0.4912 c 0.0735,0.1279 0.2098,0.2068 0.3574,0.2068 0.1476,0 0.2839,-0.0789 0.3575,-0.2068 v 0 c 0.0745,-0.1273 0.0745,-0.285 0,-0.4123 L 71.271,14.5918 c -0.0737,-0.1283 -0.2102,-0.2074 -0.3582,-0.2076 v 0 c -0.1471,5e-4 -0.2828,0.079 -0.3566,0.2063 -0.0737,0.1273 -0.0743,0.2842 -0.0015,0.4121 z"
         id="path3848"
         style="fill:url(#basic-white);stroke-width:0.146189" />
      <path
         class="cls-4"
         d="m 71.7929,17.1472 0.478,0.8288 c 0.074,0.1279 0.2105,0.2067 0.3582,0.2067 0.1477,0 0.2842,-0.0788 0.3582,-0.2067 v 0 c 0.073,-0.1282 0.073,-0.2854 0,-0.4137 l -0.4781,-0.8289 c -0.0739,-0.1278 -0.2104,-0.2066 -0.3581,-0.2066 -0.1477,0 -0.2843,0.0788 -0.3582,0.2066 v 0 c -0.0751,0.1277 -0.0751,0.2861 0,0.4138 z"
         id="path3850"
         style="fill:url(#basic-white);stroke-width:0.146189" />
      <path
         class="cls-4"
         d="m 72.2169,24.3835 h -0.981 c -0.1475,2e-4 -0.2838,0.079 -0.3576,0.2067 -0.0739,0.1278 -0.0741,0.2852 -5e-4,0.4132 v 0 c 0.0737,0.1282 0.2102,0.2073 0.3581,0.2075 h 0.9795 c 0.148,2e-4 0.2847,-0.0791 0.3582,-0.2075 v 0 c 0.0733,-0.1278 0.0733,-0.2849 -2e-4,-0.4125 C 72.5,24.4632 72.3642,24.3842 72.2169,24.3835 Z"
         id="path3852"
         style="fill:url(#basic-white);stroke-width:0.146189" />
      <path
         class="cls-4"
         d="m 69.3267,24.3835 v 0 c -0.1476,2e-4 -0.2838,0.079 -0.3577,0.2067 -0.0738,0.1278 -0.074,0.2852 -5e-4,0.4132 v 0 c 0.0735,0.1284 0.2102,0.2077 0.3582,0.2075 v 0 c 0.148,10e-5 0.2848,-0.0788 0.3587,-0.2071 0.0739,-0.1282 0.0737,-0.2861 -5e-4,-0.4142 v 0 c -0.0743,-0.1274 -0.2107,-0.2059 -0.3582,-0.2061 z"
         id="path3854"
         style="fill:url(#basic-white);stroke-width:0.146189" />
      <path
         class="cls-4"
         d="m 65.5638,17.1457 1.2368,-2.1431 c 0.0735,-0.128 0.0733,-0.2854 -5e-4,-0.4131 -0.0739,-0.1278 -0.2102,-0.2066 -0.3577,-0.2068 v 0 c -0.1479,2e-4 -0.2845,0.0794 -0.3582,0.2076 l -1.2367,2.1417 c -0.0745,0.1278 -0.0745,0.2859 0,0.4137 v 0 c 0.0739,0.1279 0.2104,0.2066 0.3581,0.2066 0.1477,0 0.2843,-0.0787 0.3582,-0.2066 z"
         id="path3856"
         style="fill:url(#basic-white);stroke-width:0.146189" />
      <path
         class="cls-4"
         d="m 63.2686,21.1323 1.3464,-2.3317 c 0.0745,-0.1279 0.0745,-0.2859 0,-0.4138 v 0 C 64.5415,18.2589 64.4052,18.18 64.2576,18.18 c -0.1476,0 -0.2839,0.0789 -0.3574,0.2068 l -1.3464,2.3318 c -0.0746,0.1278 -0.0746,0.2858 0,0.4137 v 0 c 0.0735,0.1279 0.2098,0.2068 0.3574,0.2068 0.1476,0 0.2839,-0.0789 0.3574,-0.2068 z"
         id="path3858"
         style="fill:url(#basic-white);stroke-width:0.146189" />
      <path
         class="cls-4"
         d="m 67.4175,24.3835 h -2.2791 c -0.1473,7e-4 -0.2831,0.0797 -0.3566,0.2074 -0.0735,0.1276 -0.0735,0.2847 -1e-4,0.4125 v 0 c 0.0735,0.1284 0.2102,0.2077 0.3581,0.2075 h 2.2777 c 0.1476,-7e-4 0.2837,-0.0799 0.3574,-0.2078 0.0738,-0.1279 0.074,-0.2853 7e-4,-0.4135 v 0 C 67.7013,24.4622 67.565,24.3837 67.4175,24.3835 Z"
         id="path3860"
         style="fill:url(#basic-white);stroke-width:0.146189" />
    </g>
    <path
       id="path1791-4"
       style="fill:none;stroke:url(#le-orange);stroke-width:1.32292;stroke-linecap:round;stroke-linejoin:round;stroke-dasharray:none;stroke-opacity:1"
       d="m 43.449809,93.049903 v -3.3738 c 0,-1.4719 0.8742,-2.8296 2.7244,-2.8296 h 5.0916 m -5.509,8.5105 c 0,0.6119 -0.243,1.1987 -0.6757,1.6314 -0.4326,0.4326 -1.0195,0.6757 -1.6313,0.6757 -0.6119,0 -1.1987,-0.2431 -1.6314,-0.6757 -0.4327,-0.4327 -0.6757,-1.0195 -0.6757,-1.6314 0,-0.6119 0.243,-1.1987 0.6757,-1.6313 0.4327,-0.4327 1.0195,-0.6758 1.6314,-0.6758 0.6118,0 1.1987,0.2431 1.6313,0.6758 0.4327,0.4326 0.6757,1.0194 0.6757,1.6313 z" />
    <path
       id="path1921"
       style="fill:none;stroke:url(#le-orange);stroke-width:1.32292;stroke-linecap:round;stroke-linejoin:round;stroke-dasharray:none;stroke-opacity:1"
       d="m 45.756809,81.838903 h 5.5511 m -5.5511,0 c 0,0.6119 -0.243,1.1987 -0.6757,1.6314 -0.4326,0.4326 -1.0195,0.6757 -1.6313,0.6757 -0.6119,0 -1.1987,-0.2431 -1.6314,-0.6757 -0.4327,-0.4327 -0.6757,-1.0195 -0.6757,-1.6314 0,-0.6119 0.243,-1.1987 0.6757,-1.6314 0.4327,-0.4326 1.0195,-0.6757 1.6314,-0.6757 0.6118,0 1.1987,0.2431 1.6313,0.6757 0.4327,0.4327 0.6757,1.0195 0.6757,1.6314 z" />
    <path
       id="path1791"
       style="fill:none;stroke:url(#le-orange);stroke-width:1.32292;stroke-linecap:round;stroke-linejoin:round;stroke-dasharray:none;stroke-opacity:1"
       d="m 43.449809,70.615303 v 3.3739 c 0,1.4719 0.8742,2.8295 2.7244,2.8295 h 5.0916 m -5.5089,-8.51049 c 0,0.61188 -0.2431,1.1987 -0.6758,1.63136 -0.4326,0.43266 -1.0195,0.67573 -1.6313,0.67573 -0.6119,0 -1.1987,-0.24307 -1.6314,-0.67573 -0.4327,-0.43266 -0.6757,-1.01948 -0.6757,-1.63136 0,-0.61188 0.243,-1.1987 0.6757,-1.63136 0.4327,-0.43266 1.0195,-0.67573 1.6314,-0.67573 0.6118,0 1.1987,0.24307 1.6313,0.67573 0.4327,0.43266 0.6758,1.01948 0.6758,1.63136 z" />
  </g>
</svg>
