<svg width="538.167" height="152.232" viewBox="0 0 142.39 40.278" xml:space="preserve" xmlns="http://www.w3.org/2000/svg" xmlns:xlink="http://www.w3.org/1999/xlink"><g fill="none" stroke="#00add8" stroke-width="2.646"><path d="M129.04 6.615c-6.952 0-6.952 4.973-6.952 6.024V27.61c0 .62 0 6.053 6.952 6.053s6.735-5.423 6.735-6.053V12.64c0-1.013.217-6.024-6.735-6.024z"/><path d="M113.61 12.639c0-1.013.217-6.025-6.735-6.025s-6.952 4.973-6.952 6.025V27.61c0 .62 0 6.053 6.952 6.053s6.735-5.423 6.735-6.053v-7.465h-4.53" stroke-linecap="square"/></g><g fill="none" stroke="#00add8" stroke-linecap="round" stroke-linejoin="round" stroke-width="1.323"><path d="M88.866 31.356v-3.374c0-1.472-.874-2.83-2.724-2.83H81.05m5.509 8.511a2.307 2.307 0 1 0 4.614 0 2.307 2.307 0 0 0-4.614 0zM86.559 20.145h-5.551m5.551 0a2.307 2.307 0 1 0 4.614 0 2.307 2.307 0 0 0-4.614 0zM88.866 8.922v3.374c0 1.472-.874 2.83-2.724 2.83H81.05m5.509-8.511a2.307 2.307 0 1 0 4.614 0 2.307 2.307 0 0 0-4.614 0z"/></g><path d="M62.737 13.728V9.291c-.001-3.22 2.772-5.887 5.993-5.889 3.221-.002 5.997 2.662 6 5.883.002 3.22 0 4.443 0 4.443" fill="none" stroke="#4db969" stroke-linecap="round" stroke-linejoin="round" stroke-width="2.133" style="paint-order:fill markers stroke"/><rect x="60.158" y="13.728" width="17.047" height="12.13" ry="1.725" fill="#4db969" stroke="#4db969" stroke-linecap="round" stroke-linejoin="round" stroke-width="2.117" style="paint-order:normal"/><g fill="#fff" stroke-width=".146"><path class="cls-4" d="M66.397 21.903a.414.414 0 0 0 .358-.206l.358-.62.285-.494.015-.025.906-1.571a.414.414 0 0 1 .717 0l.61 1.055a.412.412 0 1 0 .716-.412l-1.326-2.297a.414.414 0 0 0-.717 0l-2.28 3.947a.414.414 0 0 0 .358.623z"/><path class="cls-4" d="M73.172 22.73h-8.207a.414.414 0 0 1-.358-.62l3.713-6.432a.414.414 0 0 1 .716 0l2.759 4.774a.414.414 0 0 1-.358.62h-3.129a.412.412 0 1 0 0 .826h4.563a.414.414 0 0 0 .358-.62l-3.865-6.695a.414.414 0 0 0-.358-.208h-.652a.414.414 0 0 0-.359.208l-4.492 7.781a.411.411 0 0 0 0 .414l.326.564a.41.41 0 0 0 .357.207h8.987a.41.41 0 0 0 .357-.207.412.412 0 0 0-.358-.612zM73.226 19.629l.868 1.503a.412.412 0 1 0 .715-.414l-.868-1.501a.414.414 0 0 0-.715.412zM70.555 15.003l.284.491a.412.412 0 1 0 .715-.412l-.283-.49a.414.414 0 0 0-.716.411zM71.793 17.147l.478.829a.414.414 0 0 0 .716-.414l-.478-.829a.414.414 0 0 0-.716.414zM72.217 24.384h-.981a.414.414 0 0 0 0 .827h.98a.412.412 0 0 0 .357-.62.413.413 0 0 0-.356-.207zM69.327 24.384a.414.414 0 1 0 .001.828.414.414 0 0 0-.001-.828zM65.564 17.146l1.237-2.143a.414.414 0 0 0-.717-.412l-1.236 2.141a.414.414 0 1 0 .716.414zM63.269 21.132l1.346-2.332a.412.412 0 1 0-.715-.414l-1.346 2.332a.412.412 0 1 0 .715.414zM67.418 24.384h-2.28a.414.414 0 0 0 .002.827h2.278a.415.415 0 0 0 .358-.62.415.415 0 0 0-.358-.207z"/></g><g fill="none" stroke="#f9a11d" stroke-linecap="round" stroke-linejoin="round" stroke-width="1.323"><path d="M48.523 31.356v-3.374c0-1.472.874-2.83 2.724-2.83h5.092m-5.509 8.511a2.307 2.307 0 1 1-4.614 0 2.307 2.307 0 0 1 4.614 0zM50.83 20.145h5.551m-5.551 0a2.307 2.307 0 1 1-4.614 0 2.307 2.307 0 0 1 4.614 0zM48.523 8.922v3.374c0 1.472.874 2.83 2.724 2.83h5.092M50.83 6.614a2.307 2.307 0 1 1-4.614 0 2.307 2.307 0 0 1 4.614 0z"/></g><g fill="none" stroke="#f9a11d" stroke-linecap="square"><path d="M34.821 20.145H24.104m13.285 13.518H24.104V6.614h13.285" stroke-width="2.646"/><path d="M6.615 33.663h10.9M6.615 6.614v27.049m0-27.049v27.049" stroke-width="2.381"/></g></svg>
